<svg width="200" height="179" viewBox="0 0 200 179" fill="none" xmlns="http://www.w3.org/2000/svg">
<g filter="url(#filter0_d_332_27)">
<path fill-rule="evenodd" clip-rule="evenodd" d="M179.12 106.044C179.121 115.245 177.165 124.355 173.363 132.856C172.738 134.253 172.065 135.629 171.346 136.982C171.101 136.481 170.843 135.984 170.587 135.492L170.586 135.491L170.585 135.49L170.501 135.327C169.861 134.113 168.924 132.739 167.843 133.117C166.906 133.44 166.54 135.277 167.238 136.164L165.994 136.204C165.481 133.892 163.223 132.934 161.465 133.612C159.712 134.289 158.362 136.098 157.102 137.841C155.912 139.485 154.684 141.212 154.192 143.384C153.701 145.56 154.2 148.304 155.752 149.284C157.27 150.242 159.048 149.218 160.528 148.168C161.944 147.163 163.572 146.093 165.085 146.693C162.653 149.853 159.937 152.829 156.959 155.586C149.931 162.091 141.587 167.251 132.405 170.771C123.222 174.291 113.381 176.102 103.442 176.101C61.6475 176.101 27.7651 144.735 27.7651 106.044C27.7578 98.5183 29.0611 91.0406 31.6246 83.8988C32.066 83.8482 32.5117 83.8014 32.9531 83.7743C35.3747 83.6224 38.0655 84.1595 39.6338 86.592C41.0446 88.7809 41.1321 91.7366 41.2197 94.6948C41.2538 95.8447 41.2878 96.9949 41.3996 98.1007C41.951 103.017 44.0768 107.668 47.5042 111.458C50.5859 114.895 54.2479 117.28 57.8719 119.627C58.0067 118.772 58.1449 117.92 58.2835 117.065L58.2838 117.063L58.3218 116.83C59.7554 116.374 60.4281 113.684 59.4737 112.201C58.4185 113.314 56.5813 112.56 56.1902 110.855C55.7992 109.151 57.0142 107.184 58.3639 107.34C59.1246 107.429 59.7976 108.048 60.4574 108.655C61.2707 109.403 62.0637 110.132 62.9759 109.827C64.0228 109.473 64.5358 107.869 64.5736 106.445C64.5891 105.862 64.5525 105.278 64.5159 104.694C64.4631 103.852 64.4104 103.012 64.5148 102.179C64.7922 99.9805 66.1166 98.2681 67.5082 96.9992C67.9149 96.6306 68.3353 96.2831 68.7556 95.9357L68.7558 95.9355C69.7776 95.0909 70.799 94.2466 71.6241 93.0995C72.9598 91.1622 73.563 88.8693 73.3395 86.5803C73.0956 84.2256 71.8133 82.0423 70.077 81.3883C68.1809 80.6723 66.1923 81.7698 64.397 82.8401C63.8968 83.1398 63.4006 83.4355 62.9003 83.7314C61.7189 84.4398 60.3818 85.1559 59.1584 84.5721C57.8466 83.9416 57.1572 81.9799 57.0605 80.1429C56.8966 77.041 57.998 74.0909 59.0659 71.3198C59.3575 70.5699 59.6462 69.8214 59.9321 69.0742C61.8142 64.2013 63.695 59.3285 65.5743 54.4558L67.1844 54.3117C61.5255 53.977 56.0094 56.4173 50.649 58.8264C48.2273 59.9084 45.7216 61.0721 43.8506 63.3334C43.7245 63.4851 43.6026 63.6409 43.4849 63.8005C42.7719 64.767 42.1848 65.9015 41.6002 67.0311L41.6002 67.0311C40.6853 68.7989 39.7768 70.5546 38.4018 71.6351C37.9945 71.9578 37.5366 72.2215 37.0438 72.4174C36.8033 72.8226 36.5672 73.23 36.3355 73.6394C41.771 64.01 49.5768 55.6339 59.1876 49.2225C72.0753 40.6248 87.5564 35.9952 103.442 35.9881C117.142 35.9837 130.588 39.4235 142.34 45.9402C154.094 52.4569 163.715 61.806 170.177 72.9894C167.773 72.5522 165.372 72.1176 162.97 71.6856C159.75 71.1018 156.29 70.3701 153.978 67.3615C153.358 66.5554 152.841 65.6071 152.326 64.663C151.518 63.182 150.716 61.7112 149.529 60.8152C148.904 60.2951 148.088 60.0146 147.248 60.0304C146.407 60.0464 145.604 60.3575 145.002 60.9009C144.623 61.2596 144.279 61.6476 143.972 62.0607C142.049 64.4866 140.129 66.914 138.211 69.3426C136.374 71.6622 133.994 74.1687 131.565 73.1724C130.119 72.573 129.038 70.5724 129.227 68.5915C129.412 66.6104 130.955 64.9757 132.447 65.3299C130.451 63.127 126.847 64.6878 126.23 68.0232C126.104 68.709 126.082 69.4415 126.06 70.1687C126.022 71.4431 125.984 72.7012 125.392 73.6627C124.564 75.0171 122.98 75.091 121.731 74.5112C121.055 74.1996 120.43 73.7377 119.805 73.2757C119.275 72.8837 118.744 72.4917 118.183 72.1916C115.861 70.9539 113.188 71.3742 110.871 72.6196C108.558 73.8651 106.532 75.8695 104.535 77.8505C103.607 78.7729 102.648 79.7342 102.085 81.0731C101.521 82.4119 101.453 84.2451 102.249 85.3659C103.039 86.4869 104.754 86.265 105.099 84.8055C104.948 86.9227 107.453 87.8569 108.647 86.4246C109.841 84.9923 109.896 82.5481 109.614 80.4543C111.825 82.6689 111.309 88.0359 108.748 89.4565C107.903 89.9246 106.983 89.9894 106.059 90.0544C105.4 90.1008 104.739 90.1472 104.103 90.3399C100.357 91.4687 98.5698 96.9797 97.3504 101.782C99.3012 98.7856 102.787 97.7348 105.531 99.3188C105.708 99.4203 105.883 99.5322 106.059 99.6442C106.59 99.9831 107.124 100.324 107.705 100.385C108.483 100.471 109.383 99.7936 109.374 98.77C110.573 99.8715 112.237 99.0659 113.427 97.9566C113.664 97.7364 113.899 97.5029 114.135 97.2687C115.086 96.3236 116.05 95.3664 117.216 95.2166C118.666 95.0299 120.276 97.1471 119.46 98.7429C118.22 98.4548 116.971 99.6225 116.455 101.136C115.937 102.65 116.022 104.41 116.32 106.025C116.996 109.648 118.741 112.91 121.109 114.964C122.256 115.957 123.593 116.689 124.964 116.595C126.339 116.502 127.727 115.432 128.184 113.727C128.288 113.338 128.346 112.921 128.404 112.507V112.506L128.404 112.506C128.509 111.75 128.613 111 128.996 110.442C129.896 109.142 131.624 109.936 132.447 111.322C132.852 112.002 133.142 112.782 133.432 113.561L133.432 113.561C133.732 114.371 134.033 115.18 134.462 115.876C135.63 117.779 137.757 118.55 139.507 117.697C141.252 116.845 142.484 114.44 142.432 111.987C143.245 114.237 144.081 116.545 145.451 118.261C146.822 119.977 148.861 121.001 150.644 120.164C152.72 119.192 153.746 116.191 154.545 113.489C155.236 111.165 155.926 108.84 156.616 106.516L156.778 105.97C157.202 104.534 157.665 103.032 158.577 102.067C159.289 101.317 160.175 100.991 161.063 100.665C161.434 100.529 161.805 100.393 162.164 100.226C165.09 98.8596 167.271 95.0883 167.499 91.0132C166.195 90.7292 164.892 90.4451 163.589 90.161C166.535 86.1327 170.29 83.1398 174.36 81.5402C174.524 81.9488 174.683 82.3575 174.839 82.77V82.774C175.533 84.5875 176.144 86.4349 176.673 88.3161C178.302 94.1046 179.124 100.062 179.12 106.044ZM95.1629 58.7783C91.7618 57.0758 87.9852 56.1147 84.1222 55.9684C80.2594 55.8221 76.4113 56.4944 72.8715 57.9341C69.7548 59.1896 66.473 61.4421 65.4333 65.5097C69.6384 63.2123 75.0818 66.8421 76.1638 72.6651L75.9112 72.7295C75.3396 76.7628 76.6155 81.1538 79.0856 83.6546C79.4099 81.057 81.255 79.289 83.07 78.1846C83.471 77.9405 83.8815 77.7112 84.2926 77.4815L84.2927 77.4815L84.2927 77.4814L84.2928 77.4814L84.2928 77.4814L84.2929 77.4813L84.293 77.4813L84.293 77.4813L84.2931 77.4812L84.2931 77.4812L84.2932 77.4812L84.2932 77.4811L84.2933 77.4811L84.2934 77.4811L84.2934 77.481L84.2935 77.481L84.2935 77.481L84.2936 77.4809C85.7421 76.6717 87.1985 75.858 88.2775 74.3797C89.6403 72.5125 90.159 69.9305 90.6691 67.3915L90.6692 67.3912L90.6692 67.391C90.7739 66.8699 90.8782 66.3507 90.9894 65.8397C91.6412 62.8392 92.8788 59.6144 95.1629 58.7783ZM82.301 126.367L79.6944 124.881C75.3204 122.388 70.9461 119.895 66.5717 117.401L66.6608 117.189C63.4008 118.338 62.0474 123.703 62.5861 128.091C62.9015 130.659 63.6587 133.068 64.4173 135.482L64.4174 135.482C64.9543 137.191 65.4921 138.902 65.8745 140.673C67.1189 146.522 66.6492 152.573 64.5143 158.199C71.4088 151.037 77.5102 143.254 82.7276 134.965C83.4556 133.921 84.0118 132.781 84.3747 131.584C84.708 130.31 84.6568 128.779 83.9891 127.757C83.5602 127.171 82.9801 126.694 82.301 126.367ZM61.3426 75.9007C60.8374 74.7017 61.0516 73.1566 61.6083 71.9977C62.1735 70.9398 62.9285 69.9782 63.8412 69.1541L64.6852 68.1973L69.1771 72.3756C70.2471 73.3708 71.4039 74.5395 71.6302 76.2386C71.8426 77.8352 71.021 79.555 69.836 79.9939C68.8535 80.3577 67.8146 79.9111 66.8508 79.4688L63.9536 78.1395C62.9494 77.6787 61.8585 77.1252 61.3426 75.9007ZM123.687 120.55C121.013 120.705 118.894 117.658 117.486 114.658C117.292 114.247 117.102 113.827 116.91 113.405L116.91 113.405C115.704 110.754 114.462 108.02 112.379 106.704C111.396 106.082 110.315 105.842 109.232 105.603C108.797 105.507 108.362 105.41 107.933 105.289C106.437 104.867 104.871 103.992 104.156 102.211L102.459 101.577C100.218 102.743 97.9476 103.931 96.0172 105.829C93.8514 107.958 92.5023 110.688 92.1781 113.598C91.8539 116.742 93.0506 120.248 95.2869 121.429C96.1946 121.908 97.1787 121.986 98.1637 122.064C99.097 122.138 100.031 122.212 100.902 122.628C103.138 123.696 104.467 126.796 104.968 129.858C105.252 131.586 105.335 133.352 105.418 135.119V135.119V135.119C105.482 136.484 105.547 137.849 105.703 139.198C106.064 142.295 107.055 145.516 109.106 147.103C111.672 149.088 115.438 147.438 116.589 143.824C116.912 142.812 117.044 141.726 117.176 140.639L117.176 140.639C117.276 139.82 117.376 139 117.557 138.21C118.12 135.757 119.407 133.784 120.69 131.816C121.102 131.184 121.514 130.552 121.901 129.905C123.493 127.247 124.746 123.635 123.687 120.55ZM97.9521 89.3857C97.7382 89.1426 97.5051 88.9138 97.2559 88.7012C96.9898 88.442 96.8453 88.0962 96.8521 87.7389C96.876 87.3827 97.0802 87.121 97.2844 86.8593C97.4886 86.5977 97.6927 86.336 97.7166 85.9799C97.7366 85.6897 97.6293 85.431 97.5205 85.1689C97.4437 84.9837 97.3661 84.7968 97.3322 84.5957C97.2434 84.0624 97.5244 83.4697 97.9282 83.3418L97.794 83.3181C98.7586 83.4421 99.6481 84.3095 100.019 85.4893C100.064 85.6334 100.103 85.7834 100.143 85.9336C100.252 86.3527 100.361 86.7725 100.606 87.0656C100.68 87.1542 100.765 87.2293 100.85 87.3041C101.005 87.441 101.159 87.5769 101.241 87.7929C101.425 88.282 101.135 88.8388 100.862 89.2507C100.499 89.847 100.069 90.407 99.581 90.9218C99.3763 91.1527 99.1215 91.3419 98.8337 91.4772C98.547 91.6125 98.2319 91.6913 97.9089 91.7082C98.1443 91.3613 98.2717 90.9618 98.2797 90.5525C98.2877 90.1433 98.1739 89.7399 97.9521 89.3857ZM92.6729 76.597C92.6763 76.596 92.6809 76.5958 92.6843 76.5948C92.5 76.7676 92.2725 76.8942 92.0211 76.9626C91.7697 77.0311 91.5035 77.0394 91.2476 76.9866C91.1621 76.9662 91.0747 76.9388 90.9869 76.9113C90.672 76.8126 90.351 76.712 90.0851 76.9259C89.8894 77.1302 89.754 77.3764 89.6881 77.6419C89.5629 77.9997 89.4367 78.3575 89.3104 78.7152C89.2512 78.8433 89.2353 78.9854 89.266 79.1219C89.2899 79.1766 89.3286 79.2247 89.3787 79.2616C89.4287 79.2983 89.4879 79.3226 89.5516 79.3319L91.8175 79.9505C92.3681 80.1007 92.963 80.2454 93.4749 79.9405C94.0664 79.5884 94.3962 78.6146 94.2006 77.7998C94.0072 76.9899 93.319 76.4454 92.6843 76.5948C92.7678 76.5254 92.8445 76.4502 92.9143 76.3698L92.6729 76.597ZM150.502 126.099L149.454 124.512C149.112 123.899 148.643 123.354 148.075 122.907C147.949 122.81 147.805 122.738 147.649 122.693C147.493 122.649 147.329 122.633 147.167 122.649C147.005 122.663 146.847 122.708 146.704 122.781C146.56 122.852 146.435 122.95 146.333 123.069L146.375 123.371C147.171 124.295 148.013 125.322 148.216 126.694C148.257 126.978 148.27 127.267 148.282 127.556V127.556L148.282 127.557V127.557V127.557V127.557V127.557V127.557V127.557V127.557C148.293 127.819 148.304 128.08 148.337 128.338C148.407 128.881 148.606 129.444 148.985 129.679C149.534 130.018 150.18 129.517 150.571 128.905C150.921 128.403 151.078 127.806 151.016 127.211C150.93 126.811 150.755 126.433 150.502 126.099ZM166.347 104.048L166.043 105.887C166.003 106.293 165.874 106.687 165.663 107.044C165.295 107.536 164.761 107.899 164.143 108.075C163.419 108.31 162.576 108.308 162.391 107.721C162.265 107.316 162.505 106.766 162.829 106.309C162.984 106.091 163.158 105.884 163.332 105.677L163.332 105.677C163.523 105.449 163.714 105.221 163.879 104.979C164.68 103.809 164.749 102.521 164.784 101.34L164.962 101.083C165.121 101.053 165.286 101.054 165.446 101.084C165.606 101.114 165.757 101.174 165.892 101.259C166.027 101.344 166.142 101.453 166.229 101.58C166.318 101.707 166.378 101.849 166.406 101.998C166.531 102.678 166.51 103.375 166.347 104.048ZM155.98 126.788C156.096 126.481 156.02 126.142 155.943 125.799C155.906 125.636 155.869 125.472 155.853 125.31C155.828 124.661 156.013 124.021 156.385 123.471C156.756 122.953 157.036 122.384 157.217 121.785C157.293 121.513 157.278 121.226 157.177 120.959C157.061 120.72 156.781 120.61 156.621 120.8L156.964 121.004C156.5 120.929 156.024 120.949 155.57 121.067C155.31 121.16 155.079 121.307 154.895 121.499C154.711 121.691 154.58 121.922 154.513 122.17C154.456 122.558 154.363 122.941 154.235 123.315C154.122 123.531 153.949 123.667 153.775 123.804C153.636 123.914 153.495 124.025 153.384 124.177C153.214 124.48 153.129 124.819 153.134 125.161C153.141 125.502 153.239 125.837 153.42 126.135C153.733 126.622 154.231 126.985 154.815 127.152C155.235 127.291 155.788 127.299 155.98 126.788ZM166.34 130.54C166.091 130.223 165.887 129.878 165.736 129.513C165.345 128.833 164.72 128.477 164.102 128.125C163.392 127.72 162.691 127.321 162.364 126.44L162.604 126.382C163.993 126.429 165.399 126.477 166.734 126.981C167.757 127.401 168.655 128.041 169.354 128.848C170.053 129.656 170.533 130.606 170.752 131.62C170.436 131.237 170.015 130.94 169.532 130.761C169.048 130.582 168.521 130.527 168.008 130.601C167.906 130.62 167.8 130.645 167.695 130.67C167.216 130.781 166.722 130.896 166.34 130.54ZM124.42 132.882L124.423 132.889L124.037 133.577C123.671 134.23 123.305 134.881 122.94 135.534C122.617 136.076 122.339 136.64 122.11 137.222C121.805 138.164 121.603 139.132 121.508 140.11C121.433 140.668 121.409 141.378 121.787 141.65C121.895 141.716 122.025 141.744 122.154 141.728C122.282 141.712 122.4 141.652 122.485 141.562C122.694 141.356 122.866 141.121 122.992 140.865C123.733 139.684 124.307 138.42 124.703 137.105C125.064 135.72 125.06 134.089 124.423 132.889L124.438 132.863L124.458 132.827L124.46 132.824L124.478 132.791L124.493 132.765L124.42 132.882ZM108.663 64.8876C108.898 65.1003 109.195 65.2447 109.518 65.303C109.84 65.3613 110.175 65.3309 110.478 65.2156C111.109 64.9607 111.687 64.6073 112.187 64.1709C112.602 63.8871 112.954 63.5319 113.223 63.1251C113.371 62.8819 113.467 62.614 113.503 62.3367C113.54 62.0594 113.517 61.7782 113.435 61.5093C113.201 60.8758 112.607 60.6634 112.084 60.5196L109.568 59.8292L110.175 59.3231C109.55 59.013 108.86 59.5884 108.471 60.3008C108.22 60.7659 108.045 61.2628 107.953 61.7752C107.744 62.8934 107.949 64.2249 108.663 64.8876ZM124.38 60.7036C124.03 60.6772 123.703 60.5283 123.467 60.2871C123.187 59.9632 123.005 59.5769 122.937 59.1673C122.869 58.7575 122.919 58.3386 123.081 57.9522C123.562 56.9435 124.666 56.9736 125.563 57.1236L125.456 57.6952C125.923 57.748 126.249 58.4265 126.189 59.037C126.164 59.3103 126.076 59.5756 125.932 59.8155C125.788 60.0554 125.592 60.2644 125.354 60.4293C125.078 60.6319 124.73 60.73 124.38 60.7036Z" fill="#0860C4"/>
<g filter="url(#filter1_d_332_27)">
<path d="M37.9015 62.5508L36.6556 63.9513L16.9583 50.1209L31.2792 66.7336L28.5121 69.8442L10.073 58.6183L26.0537 75.5065L23.5383 78.0046L1.53961 56.0553L5.61068 51.4791L24.7518 63.6287L9.57083 46.8957L13.6129 42.3521L37.9015 62.5508Z" fill="#072CBA"/>
</g>
<g filter="url(#filter2_d_332_27)">
<path d="M33.1384 29.4428L50.2843 44.2964L48.4878 46.3158L42.4378 41.6529C42.9666 42.5081 43.3916 43.315 43.7132 44.0735C44.0332 44.8119 44.2762 45.505 44.442 46.153C44.6064 46.7808 44.7098 47.3673 44.7522 47.9126C44.7931 48.4377 44.7938 48.9199 44.7545 49.3595C44.6546 50.372 44.3704 51.2407 43.9016 51.9652C43.1386 52.823 42.2942 53.3768 41.3683 53.6269C40.4522 53.8662 39.4306 53.8287 38.3033 53.5147C37.1858 53.1898 35.9587 52.6037 34.6218 51.7565C33.2851 50.9093 31.8195 49.8227 30.225 48.4966C29.001 47.4787 27.721 46.3483 26.385 45.1049C25.0377 43.8523 23.6071 42.4737 22.0932 40.9692L24.9826 38.2153C26.6966 40.1319 28.2312 41.7669 29.5863 43.1205C30.9511 44.4632 32.178 45.5875 33.2673 46.4933C34.3115 47.3617 35.2374 48.056 36.0444 48.5763C36.8403 49.087 37.5322 49.4734 38.1196 49.7352C38.696 49.9879 39.1808 50.1456 39.5744 50.2084C39.9775 50.2603 40.3084 50.2616 40.5672 50.2123C40.8259 50.1631 41.0196 50.0881 41.1484 49.9873C41.2867 49.8757 41.38 49.7928 41.4283 49.7384C41.7953 49.3259 41.9626 48.7755 41.9301 48.0874C41.8975 47.3992 41.7221 46.63 41.404 45.7799C41.0858 44.9297 40.648 44.0273 40.0906 43.0727C39.5429 42.1072 38.9429 41.1455 38.2908 40.1875C37.6274 39.2204 36.9399 38.2802 36.2282 37.3673C35.5149 36.4341 34.8344 35.5849 34.1869 34.8197C33.5392 34.0543 32.9571 33.3909 32.4409 32.8293C31.9133 32.2584 31.5132 31.8407 31.2406 31.5762L33.1384 29.4428Z" fill="#072CBA"/>
</g>
<g filter="url(#filter3_d_332_27)">
<path d="M65.8053 38.4952C65.0403 36.4448 64.3417 34.6069 63.7096 32.9813C63.0874 31.338 62.5493 29.9394 62.0957 28.7854C61.5678 27.4437 61.087 26.2527 60.6533 25.2126C60.0212 23.5871 59.4114 22.4039 58.8237 21.6631C58.2461 20.9044 57.7091 20.5976 57.2129 20.7426C56.7167 20.8877 56.3078 21.3364 55.986 22.0888C55.6642 22.8412 55.4116 23.7902 55.2284 24.9359C55.0451 26.0816 54.9281 27.365 54.8773 28.7862C54.8366 30.1895 54.837 31.6256 54.8786 33.0945C54.9343 34.5594 55.0284 35.998 55.1606 37.4105C55.3071 38.8189 55.4766 40.0784 55.6692 41.1891L52.7815 42.1231C52.1549 39.8227 51.5222 37.6514 50.8835 35.6089C50.2148 33.4705 49.5684 31.5276 48.9446 29.78C48.3164 28.0188 47.7583 26.5063 47.2703 25.2427C46.6995 23.7639 46.1687 22.4379 45.6781 21.2648L49.8339 20.2293L52.4188 28.4951C52.4621 27.495 52.5147 26.6493 52.5771 25.9578C52.6393 25.2664 52.6955 24.7039 52.7456 24.2704C52.8026 23.76 52.8543 23.3559 52.9003 23.0582C53.0589 22.2787 53.2765 21.5643 53.5532 20.915C53.8255 20.2519 54.1398 19.6737 54.4962 19.1806C54.8624 18.6696 55.2566 18.2476 55.6786 17.9148C56.1149 17.5778 56.5599 17.343 57.0135 17.2103C57.4671 17.0777 57.9225 17.0493 58.3794 17.1252C58.8365 17.2011 59.2781 17.4011 59.7044 17.7253C60.145 18.0453 60.5723 18.4964 60.9864 19.0785C61.4105 19.6427 61.8185 20.3537 62.2106 21.2116C62.9004 22.6257 63.6047 24.1851 64.3235 25.89C64.9511 27.3522 65.6437 29.0722 66.4014 31.0499C67.1592 33.0276 67.9146 35.1706 68.6674 37.4789L65.8053 38.4952Z" fill="#072CBA"/>
</g>
<g filter="url(#filter4_d_332_27)">
<path d="M81.4868 1.41583L90.6561 30.7364L87.7429 31.5881L86.7396 28.3805C86.6111 28.9569 86.4336 29.4798 86.2095 29.9495C85.9991 30.4149 85.7591 30.8365 85.4906 31.2142C85.2221 31.592 84.9332 31.9307 84.625 32.2304C84.3258 32.5122 84.0255 32.7645 83.724 32.9874C83.0347 33.5032 82.2771 33.9039 81.454 34.1896C80.1355 34.5751 78.8212 34.6526 77.5114 34.4222C76.2014 34.1917 74.9653 33.6778 73.8029 32.8807C72.6548 32.0792 71.6154 31.0067 70.6846 29.6631C69.7494 28.3058 68.9947 26.7086 68.4202 24.8718C67.9315 23.3092 67.6479 21.7838 67.5693 20.2957C67.5051 18.8035 67.6502 17.437 68.0049 16.1963C68.3738 14.9514 68.9531 13.8845 69.7427 12.9953C70.5423 12.0884 71.5658 11.4525 72.8134 11.0878C73.8754 10.8222 74.9399 10.713 76.0069 10.7601C76.4609 10.777 76.9349 10.8329 77.4288 10.9279C77.9368 11.0187 78.4479 11.1685 78.9619 11.3773C79.4717 11.5723 79.9702 11.8306 80.4575 12.1519C80.9591 12.469 81.4324 12.8692 81.8778 13.3525L78.463 2.43447L81.4868 1.41583ZM84.0346 20.8455C83.6364 19.7202 83.1803 18.7541 82.665 17.9473C82.1588 17.1227 81.6262 16.4331 81.066 15.8788C80.5058 15.3245 79.9303 14.8942 79.3395 14.5883C78.7443 14.2685 78.1699 14.04 77.6164 13.9026C77.0627 13.7653 76.5348 13.7101 76.0327 13.7372C75.5263 13.7506 75.0816 13.8133 74.6989 13.9252C73.6923 14.2195 72.896 14.6916 72.3102 15.3416C71.7242 15.9916 71.3217 16.7826 71.1025 17.7144C70.8833 18.6462 70.8339 19.7004 70.9543 20.8771C71.0888 22.0496 71.3662 23.3075 71.7862 24.6508C72.2836 26.2409 72.9184 27.5289 73.691 28.5149C74.4735 29.483 75.2908 30.2165 76.1432 30.7154C77.0054 31.1964 77.8593 31.4779 78.7051 31.5597C79.5649 31.6375 80.321 31.581 80.9732 31.3903C81.6821 31.1831 82.3329 30.8135 82.9244 30.2814C83.5113 29.7357 83.9709 29.0255 84.3008 28.151C84.6261 27.2629 84.7853 26.2139 84.7785 25.0041C84.7717 23.7944 84.5237 22.4081 84.0346 20.8455Z" fill="#072CBA"/>
</g>
<g filter="url(#filter5_d_332_27)">
<path d="M112.493 17.8051C112.215 19.8496 111.716 21.6494 110.996 23.2043C110.291 24.7612 109.435 26.0534 108.429 27.0807C107.439 28.0957 106.33 28.8357 105.101 29.3004C103.875 29.7509 102.616 29.8938 101.324 29.7293C100.017 29.5629 98.8326 29.0944 97.7724 28.3238C96.7122 27.5533 95.8341 26.5387 95.139 25.2803C94.444 24.0218 93.956 22.5586 93.6751 20.8908C93.4112 19.2105 93.4134 17.3836 93.683 15.4101C93.9128 13.7205 94.3348 12.2072 94.9502 10.8699C95.5827 9.52044 96.371 8.39314 97.3163 7.48788C98.2763 6.58454 99.3729 5.92985 100.609 5.52383C101.861 5.1055 103.214 4.98887 104.668 5.17397C106.283 5.37964 107.639 5.84122 108.737 6.5587C109.836 7.262 110.699 8.16625 111.325 9.27156C111.966 10.3787 112.375 11.6585 112.55 13.1108C112.742 14.5508 112.724 16.1156 112.493 17.8051ZM109.074 17.413C109.248 16.1352 109.289 14.9561 109.196 13.8755C109.105 12.7949 108.861 11.8466 108.464 11.0305C108.084 10.2021 107.547 9.53441 106.854 9.02729C106.162 8.52016 105.302 8.20122 104.273 8.07034C103.349 7.95255 102.483 8.05186 101.678 8.36828C100.888 8.68646 100.183 9.19622 99.5651 9.89746C98.9486 10.5845 98.4288 11.4357 98.0067 12.4508C97.5847 13.4659 97.2867 14.6124 97.1126 15.8901C96.9102 17.3809 96.8806 18.7494 97.0239 19.9954C97.1832 21.2434 97.4676 22.334 97.8782 23.2675C98.3036 24.2027 98.8439 24.9504 99.5003 25.5105C100.17 26.0725 100.924 26.4069 101.762 26.5134C102.584 26.6181 103.385 26.4891 104.166 26.1264C104.963 25.7656 105.684 25.1929 106.328 24.4083C106.987 23.6256 107.554 22.6505 108.026 21.4829C108.515 20.303 108.864 18.9464 109.074 17.413Z" fill="#072CBA"/>
</g>
<g filter="url(#filter6_d_332_27)">
<path d="M134.193 34.1398L133.892 28.2948C133.191 28.1767 132.496 28.0666 131.808 27.9645C131.12 27.8625 130.424 27.7665 129.718 27.6767C128.97 27.5815 128.212 27.4923 127.447 27.4092C126.681 27.3262 125.915 27.2502 125.147 27.1815C124.825 28.1226 124.512 29.0505 124.208 29.9651C123.918 30.8816 123.629 31.798 123.34 32.7146L119.216 32.2327C120.204 29.802 121.151 27.3442 122.057 24.8598C122.978 22.377 123.877 19.8844 124.757 17.3819C125.635 14.8794 126.506 12.3759 127.371 9.8715C128.234 7.36715 129.103 4.885 129.976 2.42508L135.673 3.04216C136.033 8.30217 136.44 13.5901 136.896 18.9059C137.367 24.2235 137.942 29.4893 138.622 34.7035L134.193 34.1398ZM132.455 6.59733C131.342 9.50339 130.264 12.4282 129.22 15.372C128.179 18.3016 127.151 21.2472 126.134 24.2089C126.777 24.3195 127.415 24.408 128.049 24.4742C128.681 24.5404 129.328 24.6155 129.989 24.6996C130.62 24.78 131.237 24.8657 131.836 24.9565C132.437 25.0474 133.047 25.1179 133.668 25.168C133.496 22.0407 133.314 18.9337 133.122 15.8471C132.93 12.7605 132.708 9.67727 132.455 6.59733Z" fill="#072CBA"/>
</g>
<g filter="url(#filter7_d_332_27)">
<path d="M166.689 26.9197L164.992 29.1525L145.244 35.4348L154.805 42.2275L152.924 44.7028L140.427 35.8238L141.66 33.3676L161.691 27.0741L152.651 20.6501L154.479 18.2441L166.689 26.9197Z" fill="#072CBA"/>
</g>
<g filter="url(#filter8_d_332_27)">
<path d="M183.067 38.7703L169.061 56.4354L166.84 54.8581L171.185 48.6692C170.345 49.2442 169.545 49.7156 168.788 50.0836C168.05 50.4487 167.354 50.7359 166.699 50.9455C166.063 51.1519 165.467 51.2964 164.908 51.379C164.369 51.4585 163.872 51.4961 163.416 51.4918C162.364 51.4732 161.446 51.2655 160.663 50.869C159.72 50.199 159.085 49.4274 158.756 48.554C158.44 47.6891 158.4 46.7013 158.638 45.5906C158.887 44.4885 159.397 43.2606 160.169 41.9072C160.94 40.5537 161.949 39.0577 163.194 37.4191C164.15 36.1613 165.218 34.8409 166.399 33.4578C167.588 32.0632 168.899 30.5787 170.335 29.0042L173.396 31.579C171.551 33.3778 169.982 34.9822 168.69 36.3922C167.409 37.8105 166.344 39.0794 165.493 40.1987C164.678 41.2718 164.032 42.2175 163.557 43.0353C163.092 43.8417 162.746 44.5381 162.521 45.1245C162.305 45.6994 162.179 46.1789 162.145 46.563C162.122 46.9557 162.146 47.2747 162.216 47.5204C162.287 47.7661 162.379 47.947 162.493 48.0634C162.619 48.1883 162.711 48.2719 162.77 48.3144C163.224 48.6366 163.804 48.7557 164.512 48.6717C165.219 48.5878 165.998 48.3599 166.852 47.9881C167.704 47.6163 168.601 47.1253 169.543 46.515C170.496 45.913 171.443 45.2612 172.38 44.5592C173.326 43.8457 174.243 43.1109 175.13 42.355C176.038 41.5961 176.862 40.8751 177.602 40.1923C178.342 39.5094 178.981 38.8976 179.521 38.3569C180.07 37.8047 180.47 37.387 180.721 37.104L183.067 38.7703Z" fill="#072CBA"/>
</g>
<g filter="url(#filter9_d_332_27)">
<path d="M198.503 47.8794L171.529 63.0738L170.165 60.8836L196.91 44.8202L198.503 47.8794Z" fill="#072CBA"/>
</g>
</g>
<defs>
<filter id="filter0_d_332_27" x="-0.965517" y="0" width="201.931" height="178.032" filterUnits="userSpaceOnUse" color-interpolation-filters="sRGB">
<feFlood flood-opacity="0" result="BackgroundImageFix"/>
<feColorMatrix in="SourceAlpha" type="matrix" values="0 0 0 0 0 0 0 0 0 0 0 0 0 0 0 0 0 0 127 0" result="hardAlpha"/>
<feOffset dy="0.965517"/>
<feGaussianBlur stdDeviation="0.482759"/>
<feComposite in2="hardAlpha" operator="out"/>
<feColorMatrix type="matrix" values="0 0 0 0 0 0 0 0 0 0 0 0 0 0 0 0 0 0 0.25 0"/>
<feBlend mode="normal" in2="BackgroundImageFix" result="effect1_dropShadow_332_27"/>
<feBlend mode="normal" in="SourceGraphic" in2="effect1_dropShadow_332_27" result="shape"/>
</filter>
<filter id="filter1_d_332_27" x="1.02362" y="42.3521" width="37.3939" height="36.6845" filterUnits="userSpaceOnUse" color-interpolation-filters="sRGB">
<feFlood flood-opacity="0" result="BackgroundImageFix"/>
<feColorMatrix in="SourceAlpha" type="matrix" values="0 0 0 0 0 0 0 0 0 0 0 0 0 0 0 0 0 0 127 0" result="hardAlpha"/>
<feOffset dy="0.51599"/>
<feGaussianBlur stdDeviation="0.257995"/>
<feComposite in2="hardAlpha" operator="out"/>
<feColorMatrix type="matrix" values="0 0 0 0 0 0 0 0 0 0 0 0 0 0 0 0 0 0 0.25 0"/>
<feBlend mode="normal" in2="BackgroundImageFix" result="effect1_dropShadow_332_27"/>
<feBlend mode="normal" in="SourceGraphic" in2="effect1_dropShadow_332_27" result="shape"/>
</filter>
<filter id="filter2_d_332_27" x="21.5772" y="29.4428" width="29.2231" height="25.3713" filterUnits="userSpaceOnUse" color-interpolation-filters="sRGB">
<feFlood flood-opacity="0" result="BackgroundImageFix"/>
<feColorMatrix in="SourceAlpha" type="matrix" values="0 0 0 0 0 0 0 0 0 0 0 0 0 0 0 0 0 0 127 0" result="hardAlpha"/>
<feOffset dy="0.51599"/>
<feGaussianBlur stdDeviation="0.257995"/>
<feComposite in2="hardAlpha" operator="out"/>
<feColorMatrix type="matrix" values="0 0 0 0 0 0 0 0 0 0 0 0 0 0 0 0 0 0 0.25 0"/>
<feBlend mode="normal" in2="BackgroundImageFix" result="effect1_dropShadow_332_27"/>
<feBlend mode="normal" in="SourceGraphic" in2="effect1_dropShadow_332_27" result="shape"/>
</filter>
<filter id="filter3_d_332_27" x="45.1621" y="17.0838" width="24.0212" height="26.0713" filterUnits="userSpaceOnUse" color-interpolation-filters="sRGB">
<feFlood flood-opacity="0" result="BackgroundImageFix"/>
<feColorMatrix in="SourceAlpha" type="matrix" values="0 0 0 0 0 0 0 0 0 0 0 0 0 0 0 0 0 0 127 0" result="hardAlpha"/>
<feOffset dy="0.51599"/>
<feGaussianBlur stdDeviation="0.257995"/>
<feComposite in2="hardAlpha" operator="out"/>
<feColorMatrix type="matrix" values="0 0 0 0 0 0 0 0 0 0 0 0 0 0 0 0 0 0 0.25 0"/>
<feBlend mode="normal" in2="BackgroundImageFix" result="effect1_dropShadow_332_27"/>
<feBlend mode="normal" in="SourceGraphic" in2="effect1_dropShadow_332_27" result="shape"/>
</filter>
<filter id="filter4_d_332_27" x="67.0386" y="1.41583" width="24.1335" height="34.1676" filterUnits="userSpaceOnUse" color-interpolation-filters="sRGB">
<feFlood flood-opacity="0" result="BackgroundImageFix"/>
<feColorMatrix in="SourceAlpha" type="matrix" values="0 0 0 0 0 0 0 0 0 0 0 0 0 0 0 0 0 0 127 0" result="hardAlpha"/>
<feOffset dy="0.51599"/>
<feGaussianBlur stdDeviation="0.257995"/>
<feComposite in2="hardAlpha" operator="out"/>
<feColorMatrix type="matrix" values="0 0 0 0 0 0 0 0 0 0 0 0 0 0 0 0 0 0 0.25 0"/>
<feBlend mode="normal" in2="BackgroundImageFix" result="effect1_dropShadow_332_27"/>
<feBlend mode="normal" in="SourceGraphic" in2="effect1_dropShadow_332_27" result="shape"/>
</filter>
<filter id="filter5_d_332_27" x="92.963" y="5.08881" width="20.2344" height="25.7385" filterUnits="userSpaceOnUse" color-interpolation-filters="sRGB">
<feFlood flood-opacity="0" result="BackgroundImageFix"/>
<feColorMatrix in="SourceAlpha" type="matrix" values="0 0 0 0 0 0 0 0 0 0 0 0 0 0 0 0 0 0 127 0" result="hardAlpha"/>
<feOffset dy="0.51599"/>
<feGaussianBlur stdDeviation="0.257995"/>
<feComposite in2="hardAlpha" operator="out"/>
<feColorMatrix type="matrix" values="0 0 0 0 0 0 0 0 0 0 0 0 0 0 0 0 0 0 0.25 0"/>
<feBlend mode="normal" in2="BackgroundImageFix" result="effect1_dropShadow_332_27"/>
<feBlend mode="normal" in="SourceGraphic" in2="effect1_dropShadow_332_27" result="shape"/>
</filter>
<filter id="filter6_d_332_27" x="118.7" y="2.42508" width="20.438" height="33.3104" filterUnits="userSpaceOnUse" color-interpolation-filters="sRGB">
<feFlood flood-opacity="0" result="BackgroundImageFix"/>
<feColorMatrix in="SourceAlpha" type="matrix" values="0 0 0 0 0 0 0 0 0 0 0 0 0 0 0 0 0 0 127 0" result="hardAlpha"/>
<feOffset dy="0.51599"/>
<feGaussianBlur stdDeviation="0.257995"/>
<feComposite in2="hardAlpha" operator="out"/>
<feColorMatrix type="matrix" values="0 0 0 0 0 0 0 0 0 0 0 0 0 0 0 0 0 0 0.25 0"/>
<feBlend mode="normal" in2="BackgroundImageFix" result="effect1_dropShadow_332_27"/>
<feBlend mode="normal" in="SourceGraphic" in2="effect1_dropShadow_332_27" result="shape"/>
</filter>
<filter id="filter7_d_332_27" x="139.911" y="18.2441" width="27.2938" height="27.4906" filterUnits="userSpaceOnUse" color-interpolation-filters="sRGB">
<feFlood flood-opacity="0" result="BackgroundImageFix"/>
<feColorMatrix in="SourceAlpha" type="matrix" values="0 0 0 0 0 0 0 0 0 0 0 0 0 0 0 0 0 0 127 0" result="hardAlpha"/>
<feOffset dy="0.51599"/>
<feGaussianBlur stdDeviation="0.257995"/>
<feComposite in2="hardAlpha" operator="out"/>
<feColorMatrix type="matrix" values="0 0 0 0 0 0 0 0 0 0 0 0 0 0 0 0 0 0 0.25 0"/>
<feBlend mode="normal" in2="BackgroundImageFix" result="effect1_dropShadow_332_27"/>
<feBlend mode="normal" in="SourceGraphic" in2="effect1_dropShadow_332_27" result="shape"/>
</filter>
<filter id="filter8_d_332_27" x="157.969" y="29.0042" width="25.6141" height="28.4632" filterUnits="userSpaceOnUse" color-interpolation-filters="sRGB">
<feFlood flood-opacity="0" result="BackgroundImageFix"/>
<feColorMatrix in="SourceAlpha" type="matrix" values="0 0 0 0 0 0 0 0 0 0 0 0 0 0 0 0 0 0 127 0" result="hardAlpha"/>
<feOffset dy="0.51599"/>
<feGaussianBlur stdDeviation="0.257995"/>
<feComposite in2="hardAlpha" operator="out"/>
<feColorMatrix type="matrix" values="0 0 0 0 0 0 0 0 0 0 0 0 0 0 0 0 0 0 0.25 0"/>
<feBlend mode="normal" in2="BackgroundImageFix" result="effect1_dropShadow_332_27"/>
<feBlend mode="normal" in="SourceGraphic" in2="effect1_dropShadow_332_27" result="shape"/>
</filter>
<filter id="filter9_d_332_27" x="169.649" y="44.8202" width="29.3698" height="19.2856" filterUnits="userSpaceOnUse" color-interpolation-filters="sRGB">
<feFlood flood-opacity="0" result="BackgroundImageFix"/>
<feColorMatrix in="SourceAlpha" type="matrix" values="0 0 0 0 0 0 0 0 0 0 0 0 0 0 0 0 0 0 127 0" result="hardAlpha"/>
<feOffset dy="0.51599"/>
<feGaussianBlur stdDeviation="0.257995"/>
<feComposite in2="hardAlpha" operator="out"/>
<feColorMatrix type="matrix" values="0 0 0 0 0 0 0 0 0 0 0 0 0 0 0 0 0 0 0.25 0"/>
<feBlend mode="normal" in2="BackgroundImageFix" result="effect1_dropShadow_332_27"/>
<feBlend mode="normal" in="SourceGraphic" in2="effect1_dropShadow_332_27" result="shape"/>
</filter>
</defs>
</svg>
