<svg width="30" height="30" viewBox="0 0 30 30" fill="none" xmlns="http://www.w3.org/2000/svg">
<path d="M27.6577 15.018C27.6577 14.0618 27.5719 13.1423 27.4125 12.2596H14.7115V17.4822H21.9692C21.6505 19.1618 20.6942 20.5839 19.2599 21.5401V24.9361H23.6365C26.1865 22.5822 27.6577 19.125 27.6577 15.018Z" fill="#4285F4"/>
<path d="M14.7115 28.1971C18.3527 28.1971 21.4053 26.9957 23.6365 24.9361L19.2599 21.5402C18.0584 22.3493 16.526 22.8397 14.7115 22.8397C11.2053 22.8397 8.22621 20.4736 7.15963 17.2861H2.67261V20.7678C4.8916 25.169 9.43991 28.1971 14.7115 28.1971Z" fill="#34A853"/>
<path d="M7.15964 17.2738C6.88992 16.4647 6.73055 15.6065 6.73055 14.7115C6.73055 13.8166 6.88992 12.9584 7.15964 12.1493V8.66754H2.67262C1.75315 10.482 1.22598 12.5293 1.22598 14.7115C1.22598 16.8937 1.75315 18.9411 2.67262 20.7555L6.16661 18.0339L7.15964 17.2738Z" fill="#FBBC05"/>
<path d="M14.7115 6.59569C16.6976 6.59569 18.463 7.28223 19.8728 8.60627L23.7346 4.74449C21.393 2.56228 18.3527 1.22598 14.7115 1.22598C9.43991 1.22598 4.8916 4.25411 2.67261 8.66757L7.15963 12.1493C8.22621 8.9618 11.2053 6.59569 14.7115 6.59569Z" fill="#EA4335"/>
</svg>
