<svg width="221" height="203" viewBox="0 0 221 203" fill="none" xmlns="http://www.w3.org/2000/svg">
<g filter="url(#filter0_d_361_166)">
<path fill-rule="evenodd" clip-rule="evenodd" d="M195.499 117.029C195.5 127.182 193.399 137.237 189.312 146.618C188.641 148.159 187.918 149.678 187.145 151.171C186.881 150.617 186.603 150.069 186.327 149.524L186.327 149.523L186.236 149.345C185.549 148.005 184.542 146.489 183.381 146.905C182.373 147.262 181.98 149.289 182.73 150.269L181.393 150.312C180.842 147.761 178.415 146.704 176.526 147.451C174.642 148.199 173.191 150.196 171.837 152.119C170.558 153.933 169.238 155.84 168.71 158.237C168.182 160.637 168.718 163.666 170.386 164.747C172.018 165.804 173.928 164.674 175.519 163.515C177.041 162.407 178.79 161.226 180.416 161.888C177.803 165.376 174.883 168.659 171.683 171.702C164.13 178.881 155.163 184.576 145.295 188.46C135.426 192.345 124.851 194.343 114.168 194.342C69.2523 194.342 32.839 159.727 32.839 117.029C32.8312 108.723 34.2318 100.471 36.9868 92.5892C37.4612 92.5334 37.9402 92.4818 38.4145 92.4518C41.0171 92.2842 43.9089 92.877 45.5943 95.5614C47.1105 97.977 47.2045 101.239 47.2986 104.503C47.3352 105.772 47.3718 107.042 47.492 108.262C48.0845 113.688 50.3691 118.821 54.0526 123.003C57.3644 126.796 61.3 129.429 65.1947 132.019C65.3396 131.075 65.4882 130.134 65.6372 129.19L65.6782 128.931C67.2189 128.428 67.9418 125.46 66.9162 123.824C65.7821 125.052 63.8076 124.219 63.3874 122.338C62.9672 120.457 64.2729 118.287 65.7234 118.459C66.5409 118.557 67.2643 119.24 67.9733 119.91C68.8473 120.735 69.6996 121.54 70.68 121.203C71.805 120.812 72.3564 119.043 72.397 117.471C72.4136 116.828 72.3743 116.183 72.3349 115.539C72.2782 114.609 72.2216 113.682 72.3338 112.763C72.6319 110.337 74.0553 108.447 75.5507 107.047C75.988 106.64 76.4398 106.256 76.8916 105.873C77.9897 104.941 79.0874 104.009 79.9742 102.743C81.4096 100.605 82.0579 98.0746 81.8177 95.5485C81.5556 92.9499 80.1775 90.5404 78.3115 89.8187C76.2737 89.0285 74.1366 90.2397 72.2072 91.4209C71.6696 91.7516 71.1363 92.078 70.5987 92.4045C69.329 93.1862 67.8921 93.9765 66.5773 93.3323C65.1675 92.6364 64.4266 90.4716 64.3227 88.4443C64.1465 85.0211 65.3303 81.7654 66.4779 78.7072C66.7912 77.8797 67.1015 77.0536 67.4087 76.229C69.4314 70.8515 71.4527 65.4739 73.4724 60.0964L75.2028 59.9374C69.1212 59.5681 63.1931 62.2611 57.4323 64.9198C54.8297 66.1139 52.1368 67.3981 50.1261 69.8936C49.9905 70.0611 49.8596 70.2329 49.733 70.409C48.9668 71.4757 48.3358 72.7278 47.7075 73.9743C46.7244 75.9253 45.7479 77.8628 44.2702 79.0552C43.8325 79.4113 43.3404 79.7024 42.8108 79.9185C42.5567 80.3582 42.3071 80.8002 42.0622 81.2444C47.9031 70.6271 56.2874 61.3916 66.6086 54.3211C80.459 44.8329 97.0965 39.7237 114.168 39.7159C128.892 39.711 143.342 43.5071 155.973 50.6989C168.605 57.8906 178.944 68.2081 185.888 80.5498C183.305 80.0673 180.724 79.5877 178.144 79.1109C174.683 78.4667 170.964 77.6592 168.48 74.339C167.813 73.4494 167.257 72.4029 166.704 71.3609C165.836 69.7266 164.974 68.1034 163.699 67.1146C163.026 66.5406 162.15 66.231 161.246 66.2485C160.343 66.2661 159.48 66.6095 158.833 67.2092C158.426 67.605 158.056 68.0332 157.726 68.489C155.66 71.1663 153.596 73.8451 151.535 76.5253C149.561 79.0852 147.003 81.8513 144.392 80.7518C142.838 80.0903 141.677 77.8825 141.88 75.6963C142.079 73.51 143.737 71.706 145.341 72.0969C143.195 69.6659 139.322 71.3883 138.659 75.0692C138.524 75.826 138.5 76.6344 138.477 77.437C138.435 78.8434 138.395 80.2318 137.759 81.2928C136.869 82.7876 135.166 82.8691 133.824 82.2292C133.097 81.8853 132.426 81.3756 131.754 80.8658C131.184 80.4332 130.614 80.0006 130.011 79.6694C127.516 78.3034 124.643 78.7673 122.153 80.1417C119.667 81.5162 117.49 83.7282 115.343 85.9144C114.346 86.9323 113.315 87.9933 112.71 89.4709C112.104 90.9484 112.032 92.9714 112.886 94.2083C113.736 95.4454 115.579 95.2006 115.95 93.5898C115.787 95.9264 118.479 96.9573 119.763 95.3767C121.046 93.796 121.105 91.0986 120.802 88.7879C123.178 91.2319 122.623 97.1549 119.871 98.7226C118.963 99.2392 117.974 99.3107 116.981 99.3825C116.273 99.4336 115.563 99.4849 114.879 99.6976C110.853 100.943 108.933 107.025 107.622 112.325C109.719 109.018 113.464 107.858 116.414 109.607C116.604 109.718 116.792 109.842 116.98 109.965L116.98 109.965L116.98 109.965L116.98 109.965L116.98 109.965L116.98 109.965L116.981 109.965L116.981 109.965L116.981 109.965L116.981 109.965L116.981 109.965L116.981 109.966L116.981 109.966C117.552 110.34 118.126 110.716 118.75 110.783C119.587 110.878 120.553 110.13 120.544 109.001C121.832 110.216 123.621 109.327 124.899 108.103C125.154 107.86 125.407 107.603 125.66 107.344L125.66 107.344C126.683 106.301 127.718 105.245 128.972 105.079C130.53 104.873 132.26 107.21 131.384 108.971C130.051 108.653 128.709 109.942 128.154 111.612C127.597 113.283 127.688 115.225 128.008 117.007C128.736 121.005 130.611 124.605 133.155 126.872C134.388 127.968 135.825 128.776 137.298 128.672C138.776 128.569 140.267 127.388 140.759 125.507C140.871 125.078 140.933 124.618 140.995 124.16C141.108 123.325 141.22 122.498 141.632 121.882C142.599 120.447 144.456 121.323 145.341 122.853C145.776 123.603 146.087 124.464 146.399 125.324L146.399 125.324C146.722 126.218 147.045 127.11 147.506 127.879C148.761 129.978 151.047 130.829 152.927 129.889C154.803 128.948 156.127 126.294 156.072 123.587C156.944 126.07 157.843 128.617 159.316 130.511C160.789 132.405 162.98 133.535 164.897 132.611C167.128 131.538 168.23 128.226 169.089 125.245C169.827 122.693 170.565 120.141 171.302 117.59L171.488 116.947C171.944 115.362 172.442 113.704 173.422 112.639C174.188 111.811 175.14 111.452 176.094 111.092L176.094 111.092C176.493 110.942 176.891 110.792 177.277 110.607C180.421 109.1 182.766 104.938 183.01 100.441L181.301 100.058L178.809 99.5001C181.975 95.0545 186.01 91.7516 190.384 89.9862L190.384 89.9864C190.56 90.4373 190.732 90.8883 190.899 91.3436V91.3479C191.645 93.3494 192.301 95.3881 192.87 97.4642C194.62 103.852 195.504 110.427 195.499 117.029ZM105.271 64.8667C101.616 62.9878 97.5574 61.9272 93.4058 61.7657C89.2545 61.6043 85.1189 62.3462 81.3147 63.935C77.9652 65.3206 74.4383 67.8065 73.3209 72.2953C77.8401 69.76 83.6901 73.7658 84.8529 80.1919L84.5815 80.263C83.9672 84.714 85.3384 89.5599 87.993 92.3198C88.3415 89.4531 90.3244 87.502 92.275 86.2831C92.7063 86.0136 93.1478 85.7603 93.59 85.5066C95.1467 84.6135 96.7119 83.7156 97.8715 82.0841C99.3361 80.0235 99.8936 77.174 100.442 74.3721L100.442 74.3713L100.442 74.3702C100.555 73.7956 100.667 73.223 100.786 72.6596C101.486 69.3483 102.816 65.7894 105.271 64.8667ZM91.4486 139.456L88.6938 137.844C83.9775 135.084 79.261 132.323 74.5444 129.562L74.6401 129.328C71.1366 130.596 69.6821 136.517 70.261 141.358C70.6001 144.193 71.4137 146.851 72.2291 149.516C72.8062 151.401 73.3841 153.29 73.7951 155.245C75.1324 161.699 74.6276 168.377 72.3333 174.586C79.7428 166.682 86.2999 158.092 91.907 148.945C92.6894 147.792 93.2872 146.535 93.6772 145.213C94.0353 143.808 93.9803 142.118 93.2627 140.991C92.8018 140.344 92.1784 139.817 91.4486 139.456ZM68.9246 83.7627C68.3817 82.4395 68.6119 80.7343 69.2102 79.4554C69.8176 78.2879 70.629 77.2267 71.6099 76.3173L72.5169 75.2613L77.3444 79.8724C78.4942 80.9707 79.7375 82.2604 79.9807 84.1355C80.209 85.8975 79.326 87.7955 78.0524 88.2798C76.9966 88.6813 75.8801 88.1884 74.8443 87.7004L71.7307 86.2334C70.6515 85.7248 69.4791 85.114 68.9246 83.7627ZM135.926 133.037C133.052 133.208 130.775 129.845 129.261 126.535C129.054 126.081 128.849 125.617 128.642 125.152C127.347 122.226 126.012 119.21 123.774 117.756C122.717 117.07 121.555 116.806 120.392 116.542C119.924 116.435 119.456 116.329 118.995 116.195C117.387 115.729 115.704 114.764 114.936 112.798L113.112 112.098C110.704 113.385 108.264 114.696 106.189 116.791C103.862 119.141 102.412 122.154 102.063 125.365C101.715 128.834 103.001 132.703 105.404 134.007C106.38 134.535 107.438 134.622 108.496 134.708C109.499 134.79 110.503 134.872 111.439 135.33C113.842 136.508 115.27 139.93 115.809 143.309C116.114 145.216 116.203 147.165 116.293 149.115C116.362 150.621 116.43 152.127 116.599 153.616C116.986 157.034 118.051 160.589 120.255 162.34C123.013 164.531 127.061 162.71 128.298 158.722C128.645 157.605 128.787 156.407 128.929 155.207C129.036 154.303 129.144 153.398 129.338 152.526C129.943 149.819 131.326 147.641 132.705 145.47L132.705 145.47L132.705 145.469L132.705 145.469L132.706 145.469L132.706 145.469L132.706 145.469L132.706 145.468L132.706 145.468L132.706 145.468L132.706 145.468L132.706 145.467C133.149 144.77 133.591 144.074 134.007 143.361C135.717 140.428 137.064 136.442 135.926 133.037ZM108.269 98.6445C108.039 98.3761 107.788 98.1237 107.521 97.8891C107.235 97.603 107.079 97.2214 107.087 96.827C107.112 96.434 107.332 96.1452 107.551 95.8564C107.771 95.5676 107.99 95.2789 108.016 94.8859C108.037 94.5656 107.922 94.2802 107.805 93.9909C107.722 93.7865 107.639 93.5802 107.602 93.3583C107.507 92.7698 107.809 92.1157 108.243 91.9745L108.099 91.9483C109.135 92.0852 110.091 93.0425 110.49 94.3445C110.539 94.5035 110.581 94.669 110.623 94.8348C110.74 95.2972 110.858 95.7606 111.121 96.084C111.2 96.1818 111.292 96.2647 111.383 96.3472C111.55 96.4983 111.715 96.6483 111.803 96.8866C112.001 97.4264 111.689 98.0409 111.396 98.4954C111.006 99.1535 110.544 99.7716 110.019 100.34C109.799 100.594 109.525 100.803 109.216 100.953C108.908 101.102 108.569 101.189 108.222 101.208C108.475 100.825 108.612 100.384 108.621 99.9321C108.629 99.4805 108.507 99.0353 108.269 98.6445ZM102.595 84.5311C102.597 84.5306 102.599 84.5303 102.601 84.5299C102.603 84.5296 102.606 84.5293 102.607 84.5287C102.409 84.7194 102.165 84.8591 101.895 84.9346C101.625 85.0102 101.338 85.0193 101.063 84.961C100.971 84.9386 100.878 84.9083 100.783 84.878C100.445 84.769 100.1 84.658 99.814 84.894C99.6038 85.1196 99.4583 85.3912 99.3874 85.6842C99.2529 86.0791 99.1172 86.474 98.9815 86.8687C98.918 87.0101 98.9008 87.1669 98.9339 87.3175C98.9595 87.3779 99.0011 87.431 99.0549 87.4717C99.1087 87.5122 99.1722 87.539 99.2407 87.5493L101.676 88.2319C102.268 88.3977 102.907 88.5575 103.457 88.2209C104.093 87.8324 104.447 86.7577 104.237 85.8585C104.029 84.9647 103.29 84.3638 102.607 84.5287C102.697 84.4521 102.78 84.3691 102.855 84.2804L102.595 84.5311ZM164.744 139.16L163.618 137.409C163.25 136.733 162.746 136.131 162.135 135.638C162.001 135.531 161.845 135.451 161.678 135.401C161.51 135.353 161.334 135.336 161.16 135.353C160.986 135.369 160.816 135.418 160.662 135.499C160.508 135.577 160.374 135.685 160.264 135.817L160.309 136.15C161.165 137.17 162.069 138.303 162.287 139.817C162.332 140.131 162.345 140.45 162.358 140.769V140.769C162.37 141.058 162.382 141.347 162.418 141.632C162.492 142.231 162.706 142.853 163.113 143.111C163.704 143.486 164.398 142.933 164.819 142.258C165.194 141.703 165.363 141.044 165.297 140.387C165.204 139.947 165.015 139.529 164.744 139.16ZM181.772 114.826L181.446 116.855C181.403 117.303 181.265 117.738 181.037 118.132C180.642 118.675 180.068 119.075 179.404 119.27C178.625 119.529 177.719 119.527 177.521 118.879C177.386 118.432 177.644 117.825 177.992 117.321C178.158 117.081 178.345 116.852 178.532 116.623C178.737 116.371 178.943 116.12 179.12 115.853C179.981 114.562 180.056 113.141 180.092 111.837L180.284 111.553C180.455 111.521 180.633 111.521 180.804 111.554C180.976 111.588 181.139 111.653 181.283 111.747C181.428 111.841 181.552 111.962 181.646 112.102C181.741 112.242 181.806 112.399 181.836 112.563C181.97 113.314 181.948 114.083 181.772 114.826ZM170.631 139.921C170.756 139.582 170.674 139.208 170.591 138.83C170.552 138.65 170.512 138.469 170.495 138.29C170.468 137.574 170.667 136.868 171.067 136.261C171.465 135.689 171.766 135.06 171.96 134.4C172.042 134.099 172.026 133.782 171.917 133.489C171.793 133.224 171.492 133.103 171.32 133.313L171.689 133.538C171.19 133.455 170.678 133.478 170.19 133.608C169.911 133.71 169.663 133.872 169.465 134.085C169.267 134.296 169.127 134.551 169.054 134.825C168.993 135.253 168.893 135.676 168.756 136.088C168.634 136.327 168.448 136.477 168.262 136.628C168.112 136.749 167.961 136.871 167.842 137.04C167.658 137.374 167.567 137.748 167.573 138.125C167.58 138.501 167.685 138.872 167.88 139.2C168.216 139.738 168.751 140.139 169.38 140.323C169.831 140.476 170.425 140.485 170.631 139.921ZM181.765 144.061C181.497 143.712 181.278 143.331 181.115 142.928C180.695 142.178 180.024 141.785 179.36 141.397C178.597 140.95 177.843 140.509 177.492 139.537L177.75 139.474C179.243 139.524 180.754 139.578 182.189 140.134C183.288 140.597 184.252 141.304 185.004 142.195C185.755 143.086 186.271 144.134 186.507 145.253C186.167 144.831 185.714 144.503 185.195 144.305C184.675 144.108 184.109 144.047 183.558 144.129C183.447 144.151 183.335 144.178 183.221 144.205C182.707 144.328 182.175 144.455 181.765 144.061ZM136.717 146.654C137.402 147.978 137.405 149.778 137.018 151.306C136.593 152.758 135.975 154.152 135.179 155.456C135.044 155.739 134.859 155.999 134.634 156.225C134.542 156.325 134.417 156.391 134.278 156.409C134.14 156.426 134 156.395 133.884 156.323C133.478 156.023 133.503 155.239 133.584 154.623C133.687 153.543 133.903 152.475 134.231 151.436C134.478 150.794 134.776 150.171 135.123 149.573C135.513 148.858 135.904 148.143 136.294 147.428L136.298 147.422L136.717 146.654L136.714 146.647L136.792 146.517C136.786 146.529 136.779 146.541 136.772 146.553C136.767 146.564 136.761 146.575 136.755 146.586C136.742 146.608 136.73 146.631 136.717 146.654ZM119.78 71.6087C120.033 71.8435 120.352 72.0028 120.699 72.0672C121.045 72.1315 121.404 72.098 121.731 71.9708C122.408 71.6895 123.029 71.2995 123.567 70.8179C124.013 70.5046 124.391 70.1127 124.681 69.6637C124.84 69.3954 124.942 69.0997 124.981 68.7936C125.02 68.4876 124.996 68.1773 124.908 67.8805C124.656 67.1814 124.018 66.947 123.456 66.7884L120.753 66.0264L121.404 65.4678C120.733 65.1257 119.991 65.7607 119.573 66.5469C119.304 67.0602 119.116 67.6085 119.017 68.174C118.792 69.408 119.012 70.8775 119.78 71.6087ZM136.671 66.9914C136.294 66.9623 135.943 66.7979 135.689 66.5318C135.388 66.1743 135.193 65.748 135.119 65.2959C135.047 64.8437 135.101 64.3814 135.275 63.955C135.792 62.8419 136.978 62.875 137.942 63.0406L137.827 63.6713C138.328 63.7296 138.679 64.4785 138.615 65.1522C138.588 65.4538 138.493 65.7466 138.338 66.0113C138.184 66.276 137.973 66.5068 137.717 66.6887C137.421 66.9123 137.047 67.0205 136.671 66.9914Z" fill="#0860C4"/>
<g filter="url(#filter1_d_361_166)">
<path d="M43.7326 69.0299L42.3936 70.5755L21.2251 55.3125L36.6157 73.646L33.6419 77.0788L13.8255 64.6901L30.9998 83.3276L28.2965 86.0845L4.65463 61.8616L9.02979 56.8114L29.6007 70.2195L13.2858 51.7533L17.6297 46.739L43.7326 69.0299Z" fill="#072CBA"/>
</g>
<g filter="url(#filter2_d_361_166)">
<path d="M38.6137 32.4926L57.0404 48.8848L55.1097 51.1134L48.6078 45.9675C49.176 46.9113 49.6328 47.8017 49.9784 48.6388C50.3223 49.4537 50.5835 50.2186 50.7617 50.9337C50.9383 51.6265 51.0495 52.2738 51.0951 52.8756C51.1389 53.455 51.1397 53.9873 51.0975 54.4724C50.9902 55.5898 50.6847 56.5484 50.1809 57.348C49.3608 58.2946 48.4534 58.9058 47.4584 59.1818C46.4738 59.4459 45.3759 59.4045 44.1644 59.058C42.9635 58.6993 41.6446 58.0525 40.208 57.1176C38.7714 56.1827 37.1962 54.9835 35.4827 53.5201C34.1673 52.3968 32.7916 51.1492 31.3558 49.7771C29.9079 48.3947 28.3705 46.8733 26.7435 45.2129L29.8487 42.1739C31.6908 44.2889 33.3399 46.0932 34.7963 47.5871C36.263 49.0688 37.5816 50.3096 38.7522 51.3093C39.8745 52.2676 40.8695 53.0339 41.7368 53.608C42.5922 54.1716 43.3357 54.598 43.967 54.887C44.5864 55.1658 45.1074 55.3398 45.5304 55.4091C45.9637 55.4664 46.3193 55.4679 46.5974 55.4135C46.8754 55.3591 47.0836 55.2764 47.222 55.1652C47.3706 55.042 47.4709 54.9505 47.5228 54.8905C47.9172 54.4352 48.097 53.8279 48.0621 53.0685C48.0271 52.309 47.8386 51.4601 47.4967 50.5219C47.1547 49.5837 46.6842 48.5878 46.0852 47.5343C45.4966 46.4688 44.8518 45.4075 44.151 44.3503C43.438 43.283 42.6992 42.2455 41.9344 41.2379C41.1677 40.2081 40.4364 39.271 39.7405 38.4264C39.0444 37.5818 38.4189 36.8497 37.8641 36.2299C37.2971 35.5999 36.8672 35.1389 36.5741 34.847L38.6137 32.4926Z" fill="#072CBA"/>
</g>
<g filter="url(#filter3_d_361_166)">
<path d="M73.7207 42.4826C72.8985 40.2198 72.1478 38.1916 71.4685 36.3977C70.7998 34.5841 70.2215 33.0406 69.734 31.7671C69.1667 30.2864 68.6499 28.972 68.1839 27.8242C67.5046 26.0303 66.8492 24.7246 66.2177 23.907C65.5969 23.0697 65.0197 22.7311 64.4865 22.8912C63.9532 23.0513 63.5138 23.5465 63.1679 24.3768C62.8221 25.2071 62.5507 26.2545 62.3537 27.5188C62.1568 28.7832 62.031 30.1996 61.9765 31.768C61.9327 33.3166 61.9331 34.9015 61.9778 36.5225C62.0377 38.1391 62.1388 39.7268 62.2809 41.2856C62.4383 42.8399 62.6205 44.2299 62.8275 45.4556L59.7241 46.4863C59.0507 43.9477 58.3708 41.5514 57.6843 39.2974C56.9656 36.9375 56.271 34.7933 55.6006 32.8647C54.9254 30.921 54.3257 29.2519 53.8012 27.8574C53.1878 26.2255 52.6174 24.7621 52.0901 23.4675L56.5564 22.3248L59.3343 31.4467C59.3808 30.3431 59.4374 29.4097 59.5044 28.6466C59.5712 27.8835 59.6316 27.2628 59.6856 26.7844C59.7468 26.2211 59.8023 25.7752 59.8518 25.4466C60.0222 24.5864 60.2561 23.798 60.5534 23.0814C60.8461 22.3496 61.1838 21.7116 61.5668 21.1673C61.9605 20.6034 62.3841 20.1377 62.8376 19.7704C63.3064 19.3986 63.7847 19.1394 64.2722 18.9931C64.7597 18.8467 65.2491 18.8154 65.7402 18.8991C66.2314 18.9829 66.7059 19.2035 67.1641 19.5613C67.6376 19.9145 68.0969 20.4123 68.5419 21.0547C68.9976 21.6773 69.4361 22.462 69.8575 23.4087C70.5988 24.9694 71.3558 26.6903 72.1283 28.5717C72.8027 30.1854 73.5471 32.0836 74.3614 34.2661C75.1758 36.4488 75.9875 38.8137 76.7966 41.3611L73.7207 42.4826Z" fill="#072CBA"/>
</g>
<g filter="url(#filter4_d_361_166)">
<path d="M90.5735 1.5625L100.428 33.9201L97.297 34.8601L96.2187 31.3202C96.0806 31.9563 95.8899 32.5335 95.649 33.0517C95.4229 33.5654 95.1649 34.0306 94.8764 34.4475C94.5879 34.8644 94.2774 35.2381 93.9461 35.5689C93.6246 35.88 93.3019 36.1584 92.9779 36.4043C92.2371 36.9735 91.4229 37.4158 90.5383 37.731C89.1213 38.1564 87.7089 38.242 86.3012 37.9877C84.8934 37.7333 83.5649 37.1663 82.3158 36.2866C81.0819 35.4021 79.9648 34.2185 78.9644 32.7357C77.9594 31.2378 77.1483 29.4752 76.531 27.4481C76.0058 25.7237 75.701 24.0402 75.6165 22.398C75.5475 20.7512 75.7035 19.2432 76.0846 17.874C76.4811 16.5001 77.1037 15.3227 77.9522 14.3414C78.8115 13.3405 79.9115 12.6388 81.2523 12.2363C82.3936 11.9432 83.5376 11.8226 84.6843 11.8747C85.1722 11.8933 85.6816 11.9551 86.2124 12.0598C86.7584 12.1601 87.3077 12.3254 87.8601 12.5559C88.4079 12.7711 88.9437 13.056 89.4674 13.4107C90.0064 13.7606 90.5151 14.2023 90.9938 14.7356L87.3239 2.68665L90.5735 1.5625ZM93.3117 23.0048C92.8838 21.7629 92.3936 20.6967 91.8398 19.8063C91.2958 18.8963 90.7234 18.1353 90.1213 17.5236C89.5193 16.9118 88.9008 16.437 88.2658 16.0994C87.6262 15.7465 87.0089 15.4943 86.414 15.3427C85.819 15.1911 85.2517 15.1302 84.7121 15.1602C84.1678 15.175 83.69 15.2442 83.2786 15.3676C82.1968 15.6924 81.3411 16.2135 80.7115 16.9308C80.0818 17.6481 79.6491 18.521 79.4136 19.5493C79.178 20.5777 79.1249 21.741 79.2543 23.0396C79.3989 24.3336 79.6969 25.7217 80.1484 27.2042C80.6829 28.959 81.3651 30.3804 82.1955 31.4685C83.0364 32.537 83.9148 33.3464 84.8308 33.897C85.7574 34.4279 86.6751 34.7384 87.5841 34.8287C88.5081 34.9146 89.3207 34.8523 90.0216 34.6418C90.7834 34.4132 91.4828 34.0052 92.1185 33.418C92.7493 32.8158 93.2432 32.0321 93.5977 31.067C93.9473 30.0869 94.1185 28.9293 94.1112 27.5942C94.1038 26.2591 93.8373 24.7293 93.3117 23.0048Z" fill="#072CBA"/>
</g>
<g filter="url(#filter5_d_361_166)">
<path d="M123.896 19.6495C123.598 21.9057 123.061 23.892 122.287 25.6079C121.529 27.3261 120.61 28.7521 119.528 29.8859C118.464 31.006 117.272 31.8226 115.952 32.3354C114.634 32.8326 113.281 32.9904 111.892 32.8088C110.488 32.6252 109.215 32.1081 108.076 31.2578C106.936 30.4074 105.992 29.2877 105.246 27.899C104.499 26.5101 103.974 24.8954 103.672 23.0547C103.389 21.2004 103.391 19.1842 103.681 17.0063C103.928 15.1418 104.381 13.4717 105.043 11.9959C105.722 10.5066 106.57 9.26257 107.585 8.26354C108.617 7.26663 109.796 6.54413 111.124 6.09605C112.469 5.63439 113.924 5.50568 115.486 5.70995C117.222 5.93692 118.679 6.44631 119.859 7.23812C121.04 8.01427 121.968 9.01218 122.64 10.232C123.33 11.4538 123.769 12.8661 123.957 14.4689C124.164 16.058 124.144 17.7849 123.896 19.6495ZM120.221 19.2168C120.408 17.8065 120.452 16.5053 120.353 15.3128C120.255 14.1203 119.992 13.0737 119.566 12.1731C119.157 11.2589 118.58 10.5221 117.836 9.96241C117.091 9.40275 116.167 9.05077 115.062 8.90634C114.068 8.77635 113.138 8.88595 112.272 9.23514C111.424 9.58627 110.666 10.1488 110.002 10.9227C109.34 11.6809 108.781 12.6202 108.327 13.7405C107.874 14.8608 107.554 16.126 107.367 17.5361C107.149 19.1813 107.117 20.6916 107.271 22.0666C107.442 23.4438 107.748 24.6475 108.189 25.6776C108.647 26.7098 109.227 27.5349 109.933 28.153C110.653 28.7732 111.463 29.1422 112.363 29.2598C113.247 29.3754 114.107 29.233 114.947 28.8327C115.803 28.4345 116.578 27.8025 117.27 26.9366C117.979 26.0728 118.588 24.9967 119.095 23.7082C119.621 22.4061 119.996 20.909 120.221 19.2168Z" fill="#072CBA"/>
</g>
<g filter="url(#filter6_d_361_166)">
<path d="M147.217 37.676L146.893 31.2257C146.14 31.0953 145.393 30.9738 144.654 30.8612C143.914 30.7485 143.166 30.6426 142.408 30.5435C141.604 30.4384 140.789 30.34 139.967 30.2484C139.144 30.1567 138.32 30.0728 137.495 29.997C137.149 31.0356 136.813 32.0596 136.486 33.069C136.174 34.0804 135.864 35.0918 135.553 36.1033L131.121 35.5714C132.183 32.889 133.2 30.1766 134.174 27.4348C135.163 24.6949 136.13 21.9441 137.075 19.1824C138.019 16.4206 138.956 13.6578 139.885 10.894C140.813 8.13025 141.747 5.39099 142.684 2.67627L148.808 3.35727C149.194 9.16213 149.632 14.9978 150.122 20.8642C150.628 26.7326 151.245 32.5439 151.976 38.2982L147.217 37.676ZM145.349 7.28069C144.152 10.4878 142.995 13.7156 141.872 16.9643C140.754 20.1973 139.649 23.448 138.556 26.7165C139.247 26.8386 139.932 26.9362 140.613 27.0093C141.293 27.0823 141.989 27.1652 142.699 27.2581C143.377 27.3468 144.04 27.4413 144.684 27.5416C145.33 27.6419 145.985 27.7197 146.652 27.775C146.468 24.3237 146.272 20.8949 146.066 17.4886C145.859 14.0822 145.621 10.6797 145.349 7.28069Z" fill="#072CBA"/>
</g>
<g filter="url(#filter7_d_361_166)">
<path d="M182.14 29.7081L180.316 32.1722L159.094 39.1052L169.369 46.6016L167.347 49.3332L153.916 39.5345L155.242 36.8239L176.768 29.8785L167.053 22.7891L169.018 20.1339L182.14 29.7081Z" fill="#072CBA"/>
</g>
<g filter="url(#filter8_d_361_166)">
<path d="M199.741 42.7862L184.689 62.2811L182.303 60.5404L186.972 53.7104C186.069 54.345 185.21 54.8653 184.395 55.2714C183.603 55.6743 182.855 55.9913 182.151 56.2225C181.468 56.4503 180.827 56.6098 180.226 56.701C179.647 56.7887 179.113 56.8302 178.623 56.8255C177.492 56.8048 176.506 56.5757 175.664 56.1381C174.651 55.3987 173.968 54.5472 173.614 53.5834C173.274 52.6289 173.232 51.5387 173.487 50.3129C173.755 49.0967 174.304 47.7416 175.133 46.248C175.962 44.7543 177.046 43.1034 178.384 41.295C179.411 39.907 180.559 38.4498 181.828 36.9234C183.106 35.3844 184.515 33.7461 186.058 32.0085L189.348 34.85C187.365 36.8351 185.679 38.6057 184.29 40.1617C182.914 41.727 181.77 43.1273 180.855 44.3626C179.979 45.5468 179.284 46.5904 178.774 47.493C178.274 48.3829 177.903 49.1514 177.661 49.7986C177.428 50.433 177.293 50.9622 177.256 51.3861C177.232 51.8194 177.257 52.1715 177.333 52.4427C177.409 52.7138 177.508 52.9135 177.63 53.0419C177.766 53.1798 177.865 53.272 177.928 53.3189C178.416 53.6745 179.04 53.806 179.8 53.7132C180.561 53.6206 181.398 53.3691 182.315 52.9588C183.23 52.5485 184.195 52.0066 185.207 51.3331C186.232 50.6688 187.249 49.9494 188.256 49.1747C189.273 48.3874 190.258 47.5765 191.212 46.7423C192.188 45.9047 193.073 45.1091 193.868 44.3554C194.663 43.6018 195.35 42.9266 195.931 42.33C196.52 41.7206 196.95 41.2596 197.221 40.9473L199.741 42.7862Z" fill="#072CBA"/>
</g>
<g filter="url(#filter9_d_361_166)">
<path d="M216.33 52.8389L187.342 69.6071L185.876 67.1901L214.619 49.4628L216.33 52.8389Z" fill="#072CBA"/>
</g>
</g>
<defs>
<filter id="filter0_d_361_166" x="-1" y="0" width="222.939" height="202.342" filterUnits="userSpaceOnUse" color-interpolation-filters="sRGB">
<feFlood flood-opacity="0" result="BackgroundImageFix"/>
<feColorMatrix in="SourceAlpha" type="matrix" values="0 0 0 0 0 0 0 0 0 0 0 0 0 0 0 0 0 0 127 0" result="hardAlpha"/>
<feOffset dy="4"/>
<feGaussianBlur stdDeviation="2"/>
<feComposite in2="hardAlpha" operator="out"/>
<feColorMatrix type="matrix" values="0 0 0 0 0 0 0 0 0 0 0 0 0 0 0 0 0 0 0.25 0"/>
<feBlend mode="normal" in2="BackgroundImageFix" result="effect1_dropShadow_361_166"/>
<feBlend mode="normal" in="SourceGraphic" in2="effect1_dropShadow_361_166" result="shape"/>
</filter>
<filter id="filter1_d_361_166" x="1.56512" y="46.739" width="45.257" height="45.5245" filterUnits="userSpaceOnUse" color-interpolation-filters="sRGB">
<feFlood flood-opacity="0" result="BackgroundImageFix"/>
<feColorMatrix in="SourceAlpha" type="matrix" values="0 0 0 0 0 0 0 0 0 0 0 0 0 0 0 0 0 0 127 0" result="hardAlpha"/>
<feOffset dy="3.08951"/>
<feGaussianBlur stdDeviation="1.54475"/>
<feComposite in2="hardAlpha" operator="out"/>
<feColorMatrix type="matrix" values="0 0 0 0 0 0 0 0 0 0 0 0 0 0 0 0 0 0 0.25 0"/>
<feBlend mode="normal" in2="BackgroundImageFix" result="effect1_dropShadow_361_166"/>
<feBlend mode="normal" in="SourceGraphic" in2="effect1_dropShadow_361_166" result="shape"/>
</filter>
<filter id="filter2_d_361_166" x="23.654" y="32.4926" width="36.4759" height="33.0395" filterUnits="userSpaceOnUse" color-interpolation-filters="sRGB">
<feFlood flood-opacity="0" result="BackgroundImageFix"/>
<feColorMatrix in="SourceAlpha" type="matrix" values="0 0 0 0 0 0 0 0 0 0 0 0 0 0 0 0 0 0 127 0" result="hardAlpha"/>
<feOffset dy="3.08951"/>
<feGaussianBlur stdDeviation="1.54475"/>
<feComposite in2="hardAlpha" operator="out"/>
<feColorMatrix type="matrix" values="0 0 0 0 0 0 0 0 0 0 0 0 0 0 0 0 0 0 0.25 0"/>
<feBlend mode="normal" in2="BackgroundImageFix" result="effect1_dropShadow_361_166"/>
<feBlend mode="normal" in="SourceGraphic" in2="effect1_dropShadow_361_166" result="shape"/>
</filter>
<filter id="filter3_d_361_166" x="49.0006" y="18.8534" width="30.8855" height="33.812" filterUnits="userSpaceOnUse" color-interpolation-filters="sRGB">
<feFlood flood-opacity="0" result="BackgroundImageFix"/>
<feColorMatrix in="SourceAlpha" type="matrix" values="0 0 0 0 0 0 0 0 0 0 0 0 0 0 0 0 0 0 127 0" result="hardAlpha"/>
<feOffset dy="3.08951"/>
<feGaussianBlur stdDeviation="1.54475"/>
<feComposite in2="hardAlpha" operator="out"/>
<feColorMatrix type="matrix" values="0 0 0 0 0 0 0 0 0 0 0 0 0 0 0 0 0 0 0.25 0"/>
<feBlend mode="normal" in2="BackgroundImageFix" result="effect1_dropShadow_361_166"/>
<feBlend mode="normal" in="SourceGraphic" in2="effect1_dropShadow_361_166" result="shape"/>
</filter>
<filter id="filter4_d_361_166" x="72.5111" y="1.5625" width="31.0061" height="42.7469" filterUnits="userSpaceOnUse" color-interpolation-filters="sRGB">
<feFlood flood-opacity="0" result="BackgroundImageFix"/>
<feColorMatrix in="SourceAlpha" type="matrix" values="0 0 0 0 0 0 0 0 0 0 0 0 0 0 0 0 0 0 127 0" result="hardAlpha"/>
<feOffset dy="3.08951"/>
<feGaussianBlur stdDeviation="1.54475"/>
<feComposite in2="hardAlpha" operator="out"/>
<feColorMatrix type="matrix" values="0 0 0 0 0 0 0 0 0 0 0 0 0 0 0 0 0 0 0.25 0"/>
<feBlend mode="normal" in2="BackgroundImageFix" result="effect1_dropShadow_361_166"/>
<feBlend mode="normal" in="SourceGraphic" in2="effect1_dropShadow_361_166" result="shape"/>
</filter>
<filter id="filter5_d_361_166" x="100.372" y="5.61597" width="26.8158" height="33.4447" filterUnits="userSpaceOnUse" color-interpolation-filters="sRGB">
<feFlood flood-opacity="0" result="BackgroundImageFix"/>
<feColorMatrix in="SourceAlpha" type="matrix" values="0 0 0 0 0 0 0 0 0 0 0 0 0 0 0 0 0 0 127 0" result="hardAlpha"/>
<feOffset dy="3.08951"/>
<feGaussianBlur stdDeviation="1.54475"/>
<feComposite in2="hardAlpha" operator="out"/>
<feColorMatrix type="matrix" values="0 0 0 0 0 0 0 0 0 0 0 0 0 0 0 0 0 0 0.25 0"/>
<feBlend mode="normal" in2="BackgroundImageFix" result="effect1_dropShadow_361_166"/>
<feBlend mode="normal" in="SourceGraphic" in2="effect1_dropShadow_361_166" result="shape"/>
</filter>
<filter id="filter6_d_361_166" x="128.031" y="2.67627" width="27.0346" height="41.801" filterUnits="userSpaceOnUse" color-interpolation-filters="sRGB">
<feFlood flood-opacity="0" result="BackgroundImageFix"/>
<feColorMatrix in="SourceAlpha" type="matrix" values="0 0 0 0 0 0 0 0 0 0 0 0 0 0 0 0 0 0 127 0" result="hardAlpha"/>
<feOffset dy="3.08951"/>
<feGaussianBlur stdDeviation="1.54475"/>
<feComposite in2="hardAlpha" operator="out"/>
<feColorMatrix type="matrix" values="0 0 0 0 0 0 0 0 0 0 0 0 0 0 0 0 0 0 0.25 0"/>
<feBlend mode="normal" in2="BackgroundImageFix" result="effect1_dropShadow_361_166"/>
<feBlend mode="normal" in="SourceGraphic" in2="effect1_dropShadow_361_166" result="shape"/>
</filter>
<filter id="filter7_d_361_166" x="150.827" y="20.1339" width="34.4025" height="35.3784" filterUnits="userSpaceOnUse" color-interpolation-filters="sRGB">
<feFlood flood-opacity="0" result="BackgroundImageFix"/>
<feColorMatrix in="SourceAlpha" type="matrix" values="0 0 0 0 0 0 0 0 0 0 0 0 0 0 0 0 0 0 127 0" result="hardAlpha"/>
<feOffset dy="3.08951"/>
<feGaussianBlur stdDeviation="1.54475"/>
<feComposite in2="hardAlpha" operator="out"/>
<feColorMatrix type="matrix" values="0 0 0 0 0 0 0 0 0 0 0 0 0 0 0 0 0 0 0.25 0"/>
<feBlend mode="normal" in2="BackgroundImageFix" result="effect1_dropShadow_361_166"/>
<feBlend mode="normal" in="SourceGraphic" in2="effect1_dropShadow_361_166" result="shape"/>
</filter>
<filter id="filter8_d_361_166" x="170.233" y="32.0085" width="32.5974" height="36.4517" filterUnits="userSpaceOnUse" color-interpolation-filters="sRGB">
<feFlood flood-opacity="0" result="BackgroundImageFix"/>
<feColorMatrix in="SourceAlpha" type="matrix" values="0 0 0 0 0 0 0 0 0 0 0 0 0 0 0 0 0 0 127 0" result="hardAlpha"/>
<feOffset dy="3.08951"/>
<feGaussianBlur stdDeviation="1.54475"/>
<feComposite in2="hardAlpha" operator="out"/>
<feColorMatrix type="matrix" values="0 0 0 0 0 0 0 0 0 0 0 0 0 0 0 0 0 0 0.25 0"/>
<feBlend mode="normal" in2="BackgroundImageFix" result="effect1_dropShadow_361_166"/>
<feBlend mode="normal" in="SourceGraphic" in2="effect1_dropShadow_361_166" result="shape"/>
</filter>
<filter id="filter9_d_361_166" x="182.786" y="49.4628" width="36.6336" height="26.3234" filterUnits="userSpaceOnUse" color-interpolation-filters="sRGB">
<feFlood flood-opacity="0" result="BackgroundImageFix"/>
<feColorMatrix in="SourceAlpha" type="matrix" values="0 0 0 0 0 0 0 0 0 0 0 0 0 0 0 0 0 0 127 0" result="hardAlpha"/>
<feOffset dy="3.08951"/>
<feGaussianBlur stdDeviation="1.54475"/>
<feComposite in2="hardAlpha" operator="out"/>
<feColorMatrix type="matrix" values="0 0 0 0 0 0 0 0 0 0 0 0 0 0 0 0 0 0 0.25 0"/>
<feBlend mode="normal" in2="BackgroundImageFix" result="effect1_dropShadow_361_166"/>
<feBlend mode="normal" in="SourceGraphic" in2="effect1_dropShadow_361_166" result="shape"/>
</filter>
</defs>
</svg>
